<svg width="40" height="41" viewBox="0 0 40 41" fill="none" xmlns="http://www.w3.org/2000/svg">
<g clip-path="url(#clip0_305_4)">
<path d="M11.6897 34.5537C11.6897 31.3642 9.08532 28.7694 5.88419 28.7694C2.68267 28.7694 0.078064 31.3642 0.078064 34.5537C0.078064 37.7426 2.68267 40.3369 5.88419 40.3369C9.08532 40.3369 11.6897 37.7426 11.6897 34.5537Z" fill="#56CCF2"/>
<path d="M0.731321 22.2442C5.38962 22.2442 9.7707 24.0592 13.0673 27.3546C16.364 30.6556 18.1798 35.0511 18.1798 39.7313C18.1798 40.0877 18.4697 40.3765 18.8274 40.3765H26.274C26.6318 40.3765 26.9217 40.0877 26.9217 39.7313C26.9217 25.2859 15.1728 13.5338 0.731192 13.5338C0.373409 13.5338 0.0835045 13.8226 0.0835045 14.1789V21.5989C0.0836341 21.9553 0.373668 22.2442 0.731321 22.2442Z" fill="#56CCF2"/>
<path d="M0.741425 0.382301C0.383643 0.382301 0.093738 0.671076 0.093738 1.02746V8.44617C0.093738 8.80256 0.383643 9.09133 0.741425 9.09133C17.6124 9.09133 31.338 22.8389 31.338 39.7371C31.338 40.0935 31.628 40.3823 31.9857 40.3823H39.4304C39.7882 40.3823 40.0781 40.0935 40.0781 39.7371C40.0781 18.0368 22.4317 0.382301 0.741425 0.382301Z" fill="#56CCF2"/>
</g>
<defs>
<clipPath id="clip0_305_4">
<rect width="40" height="40" fill="white" transform="translate(0 0.382301)"/>
</clipPath>
</defs>
</svg>
